<svg width="20" height="13" viewBox="0 0 20 13" fill="none" xmlns="http://www.w3.org/2000/svg">
<path fill-rule="evenodd" clip-rule="evenodd" d="M19.7496 1.68211C19.7496 1.04907 19.272 0.535889 18.6829 0.535889H17.6162C17.0271 0.535889 16.5496 1.04907 16.5496 1.68211V11.6161C16.5496 12.2491 17.0271 12.7623 17.6162 12.7623H18.6829C19.272 12.7623 19.7496 12.2491 19.7496 11.6161V1.68211ZM12.3154 2.98117H13.3821C13.9712 2.98117 14.4488 3.50667 14.4488 4.15491V11.5886C14.4488 12.2368 13.9712 12.7623 13.3821 12.7623H12.3154C11.7263 12.7623 11.2488 12.2368 11.2488 11.5886V4.15491C11.2488 3.50667 11.7263 2.98117 12.3154 2.98117ZM7.98368 5.63022H6.91701C6.3279 5.63022 5.85034 6.16241 5.85034 6.8189V11.5736C5.85034 12.2301 6.3279 12.7623 6.91701 12.7623H7.98368C8.57278 12.7623 9.05034 12.2301 9.05034 11.5736V6.8189C9.05034 6.16241 8.57278 5.63022 7.98368 5.63022ZM2.68289 8.07551H1.61623C1.02712 8.07551 0.549561 8.6001 0.549561 9.24721V11.5906C0.549561 12.2377 1.02712 12.7623 1.61623 12.7623H2.68289C3.272 12.7623 3.74956 12.2377 3.74956 11.5906V9.24721C3.74956 8.6001 3.272 8.07551 2.68289 8.07551Z" fill="#181717"/>
</svg>
