<svg width="18" height="13" viewBox="0 0 18 13" fill="none" xmlns="http://www.w3.org/2000/svg">
<path fill-rule="evenodd" clip-rule="evenodd" d="M8.82008 3.10398C11.3072 3.10408 13.6992 4.02616 15.5017 5.67964C15.6374 5.8073 15.8544 5.80569 15.9881 5.67603L17.2856 4.41257C17.3533 4.34681 17.391 4.25773 17.3904 4.16505C17.3899 4.07237 17.3511 3.98372 17.2826 3.91873C12.5516 -0.455984 5.08785 -0.455984 0.356835 3.91873C0.288303 3.98368 0.249419 4.07229 0.248787 4.16497C0.248155 4.25766 0.285828 4.34676 0.353468 4.41257L1.65133 5.67603C1.78493 5.80588 2.00205 5.8075 2.1377 5.67964C3.94044 4.02606 6.33273 3.10397 8.82008 3.10398ZM8.81673 7.32425C10.174 7.32417 11.4829 7.83591 12.489 8.76004C12.6251 8.89119 12.8395 8.88835 12.9721 8.75363L14.2594 7.43432C14.3272 7.36512 14.3648 7.27124 14.3639 7.17369C14.3629 7.07614 14.3234 6.98306 14.2542 6.91527C11.1904 4.02442 6.44566 4.02442 3.38183 6.91527C3.31262 6.98306 3.27313 7.07619 3.27223 7.17377C3.27132 7.27135 3.30906 7.36522 3.377 7.43432L4.66391 8.75363C4.79656 8.88835 5.01093 8.89119 5.14701 8.76004C6.15246 7.83652 7.4603 7.32482 8.81673 7.32425ZM11.3411 10.1178C11.3431 10.2232 11.306 10.3247 11.2387 10.3985L9.06205 12.8533C8.99824 12.9254 8.91125 12.966 8.82048 12.966C8.72971 12.966 8.64272 12.9254 8.57891 12.8533L6.40188 10.3985C6.33463 10.3247 6.29764 10.2231 6.29963 10.1177C6.30162 10.0124 6.34243 9.9126 6.41242 9.84199C7.80252 8.52809 9.83844 8.52809 11.2285 9.84199C11.2985 9.91266 11.3392 10.0125 11.3411 10.1178Z" fill="#181717"/>
</svg>
